<svg xmlns="http://www.w3.org/2000/svg" xmlns:xlink="http://www.w3.org/1999/xlink" preserveAspectRatio="xMidYMid" width="980" height="1993.875" viewBox="0 0 980 1993.875">
  <defs>
    <style>
      .cls-1 {
        fill: #1d5c6f;
        fill-rule: evenodd;
      }
    </style>
  </defs>
  <path d="M980.000,104.864 C980.000,85.609 964.391,70.000 945.136,70.000 L944.864,70.000 C925.609,70.000 910.000,85.609 910.000,104.864 L910.000,143.845 L910.000,175.136 C910.000,194.391 894.391,210.000 875.136,210.000 L874.864,210.000 C855.609,210.000 840.000,194.391 840.000,175.136 L840.000,99.140 L840.000,44.864 C840.000,25.609 824.391,10.000 805.136,10.000 L804.864,10.000 C785.609,10.000 770.000,25.609 770.000,44.864 L770.000,63.000 L770.000,63.000 L770.000,78.136 C770.000,97.391 754.391,113.000 735.136,113.000 L734.864,113.000 C715.609,113.000 700.000,97.391 700.000,78.136 L700.000,60.000 L700.000,34.864 C700.000,15.609 684.391,-0.000 665.136,-0.000 L664.864,-0.000 C645.609,-0.000 630.000,15.609 630.000,34.864 L630.000,71.000 L630.000,209.136 C630.000,228.391 614.391,244.000 595.136,244.000 L594.864,244.000 C575.609,244.000 560.000,228.391 560.000,209.136 L560.000,71.864 C560.000,52.609 544.391,37.000 525.136,37.000 L524.864,37.000 C505.609,37.000 490.000,52.609 490.000,71.864 L490.000,150.136 C490.000,169.391 474.391,185.000 455.136,185.000 L454.864,185.000 C435.609,185.000 420.000,169.391 420.000,150.136 L420.000,133.000 L420.000,114.864 C420.000,95.609 404.391,80.000 385.136,80.000 L384.864,80.000 C365.609,80.000 350.000,95.609 350.000,114.864 L350.000,172.980 L350.000,243.136 C350.000,262.391 334.391,278.000 315.136,278.000 L314.864,278.000 C295.609,278.000 280.000,262.391 280.000,243.136 L280.000,187.414 L280.000,154.864 C280.000,135.609 264.391,120.000 245.136,120.000 L244.864,120.000 C225.609,120.000 210.000,135.609 210.000,154.864 L210.000,190.245 L210.000,316.136 C210.000,335.391 194.391,351.000 175.136,351.000 L174.864,351.000 C155.609,351.000 140.000,335.391 140.000,316.136 L140.000,180.009 L140.000,120.864 C140.000,101.609 124.391,86.000 105.136,86.000 L104.864,86.000 C85.609,86.000 70.000,101.609 70.000,120.864 L70.000,261.136 C70.000,280.391 54.391,296.000 35.136,296.000 L34.864,296.000 C15.609,296.000 0.000,280.391 0.000,261.136 L0.000,1999.875 L980.000,1999.875 L980.000,104.864 Z" class="cls-1"/>
</svg>
